<?xml version="1.0" encoding="utf-8"?>
<!-- Generator: Adobe Illustrator 26.0.1, SVG Export Plug-In . SVG Version: 6.00 Build 0)  -->
<svg version="1.1" id="Layer_1" xmlns="http://www.w3.org/2000/svg" xmlns:xlink="http://www.w3.org/1999/xlink" x="0px" y="0px"
	 viewBox="0 0 1080 1080" style="enable-background:new 0 0 1080 1080;" xml:space="preserve">
<style type="text/css">
	.st0{clip-path:url(#SVGID_00000109734392505174548860000010376858508951393444_);fill:#C2BDFF;}
	.st1{clip-path:url(#SVGID_00000109734392505174548860000010376858508951393444_);}
	.st2{fill:#D9D6FF;}
	.st3{fill:#D6D1FF;}
</style>
<g>
	<g>
		<defs>
			<rect id="SVGID_1_" width="1080" height="1080"/>
		</defs>
		<clipPath id="SVGID_00000021108190140944070480000015269914165254083763_">
			<use xlink:href="#SVGID_1_"  style="overflow:visible;"/>
		</clipPath>
		
			<rect style="clip-path:url(#SVGID_00000021108190140944070480000015269914165254083763_);fill:#C2BDFF;" width="1080" height="1080"/>
		<g style="clip-path:url(#SVGID_00000021108190140944070480000015269914165254083763_);">
			<g>
				<line class="st2" x1="-149.79" y1="-27.12" x2="-149.79" y2="1141.45"/>
				<rect x="-150.87" y="-27.11" class="st3" width="2.16" height="1168.56"/>
			</g>
			<g>
				<line class="st2" x1="-13.73" y1="-27.12" x2="-13.73" y2="1141.45"/>
				<rect x="-14.81" y="-27.11" class="st3" width="2.16" height="1168.56"/>
			</g>
			<g>
				<line class="st2" x1="122.34" y1="-27.12" x2="122.34" y2="1141.45"/>
				<rect x="121.26" y="-27.11" class="st3" width="2.16" height="1168.56"/>
			</g>
			<g>
				<line class="st2" x1="258.4" y1="-27.12" x2="258.4" y2="1141.45"/>
				<rect x="257.32" y="-27.11" class="st3" width="2.16" height="1168.56"/>
			</g>
			<g>
				<line class="st2" x1="394.47" y1="-27.12" x2="394.47" y2="1141.45"/>
				<rect x="393.39" y="-27.11" class="st3" width="2.16" height="1168.56"/>
			</g>
			<g>
				<line class="st2" x1="530.53" y1="-71.64" x2="530.53" y2="1096.92"/>
				<rect x="529.45" y="-71.64" class="st3" width="2.16" height="1168.56"/>
			</g>
			<g>
				<line class="st2" x1="666.6" y1="-71.64" x2="666.6" y2="1096.92"/>
				<rect x="665.52" y="-71.64" class="st3" width="2.16" height="1168.56"/>
			</g>
			<g>
				<line class="st2" x1="802.66" y1="-71.64" x2="802.66" y2="1096.92"/>
				<rect x="801.58" y="-71.64" class="st3" width="2.16" height="1168.56"/>
			</g>
			<g>
				<line class="st2" x1="938.73" y1="-71.64" x2="938.73" y2="1096.92"/>
				<rect x="937.65" y="-71.64" class="st3" width="2.16" height="1168.56"/>
			</g>
			<g>
				<line class="st2" x1="1074.79" y1="-71.64" x2="1074.79" y2="1096.92"/>
				<rect x="1073.71" y="-71.64" class="st3" width="2.16" height="1168.56"/>
			</g>
			<g>
				<line class="st2" x1="1210.86" y1="-71.64" x2="1210.86" y2="1096.92"/>
				<rect x="1209.78" y="-71.64" class="st3" width="2.16" height="1168.56"/>
			</g>
			<g>
				<line class="st2" x1="-281.57" y1="69.05" x2="1361.79" y2="69.05"/>
				<rect x="-281.57" y="67.97" class="st3" width="1643.35" height="2.16"/>
			</g>
			<g>
				<line class="st2" x1="-281.57" y1="202.14" x2="1361.79" y2="202.14"/>
				<rect x="-281.57" y="201.06" class="st3" width="1643.35" height="2.16"/>
			</g>
			<g>
				<line class="st2" x1="-281.57" y1="335.23" x2="1361.79" y2="335.23"/>
				<rect x="-281.57" y="334.15" class="st3" width="1643.35" height="2.16"/>
			</g>
			<g>
				<line class="st2" x1="-281.57" y1="468.33" x2="1361.79" y2="468.33"/>
				<rect x="-281.57" y="467.25" class="st3" width="1643.35" height="2.16"/>
			</g>
			<g>
				<line class="st2" x1="-281.57" y1="601.42" x2="1361.79" y2="601.42"/>
				<rect x="-281.57" y="600.34" class="st3" width="1643.35" height="2.16"/>
			</g>
			<g>
				<line class="st2" x1="-281.57" y1="734.51" x2="1361.79" y2="734.51"/>
				<rect x="-281.57" y="733.43" class="st3" width="1643.35" height="2.16"/>
			</g>
			<g>
				<line class="st2" x1="-281.57" y1="865.55" x2="1361.79" y2="865.55"/>
				<rect x="-281.57" y="864.47" class="st3" width="1643.35" height="2.16"/>
			</g>
			<g>
				<line class="st2" x1="-281.57" y1="996.58" x2="1361.79" y2="996.58"/>
				<rect x="-281.57" y="995.5" class="st3" width="1643.35" height="2.16"/>
			</g>
		</g>
	</g>
</g>
</svg>
