<?xml version="1.0" encoding="utf-8"?>
<!-- Generator: Adobe Illustrator 26.0.1, SVG Export Plug-In . SVG Version: 6.00 Build 0)  -->
<svg version="1.1" id="Layer_1" xmlns="http://www.w3.org/2000/svg" xmlns:xlink="http://www.w3.org/1999/xlink" x="0px" y="0px"
	 viewBox="0 0 500 500" style="enable-background:new 0 0 500 500;" xml:space="preserve">
<style type="text/css">
	.st0{clip-path:url(#SVGID_00000042009581790284175540000002360997863591034040_);fill:#FAD8C6;}
	.st1{clip-path:url(#SVGID_00000042009581790284175540000002360997863591034040_);}
	.st2{fill:#F5ECDC;}
</style>
<g>
	<defs>
		<rect id="SVGID_1_" width="500" height="500"/>
	</defs>
	<use xlink:href="#SVGID_1_"  style="overflow:visible;fill:#FFFFFF;"/>
	<clipPath id="SVGID_00000036230767638249399910000015677799370827155089_">
		<use xlink:href="#SVGID_1_"  style="overflow:visible;"/>
	</clipPath>
	
		<rect style="clip-path:url(#SVGID_00000036230767638249399910000015677799370827155089_);fill:#FAD8C6;" width="500" height="500"/>
	<g style="clip-path:url(#SVGID_00000036230767638249399910000015677799370827155089_);">
		<g>
			<rect x="-79.89" y="-20.56" class="st2" width="1.41" height="557.66"/>
		</g>
		<g>
			<rect x="-14.95" y="-20.56" class="st2" width="1.41" height="557.66"/>
		</g>
		<g>
			<rect x="49.98" y="-20.56" class="st2" width="1.41" height="557.66"/>
		</g>
		<g>
			<rect x="114.91" y="-20.56" class="st2" width="1.41" height="557.66"/>
		</g>
		<g>
			<rect x="179.84" y="-20.56" class="st2" width="1.41" height="557.66"/>
		</g>
		<g>
			<rect x="244.78" y="-41.81" class="st2" width="1.41" height="557.66"/>
		</g>
		<g>
			<rect x="309.71" y="-41.81" class="st2" width="1.41" height="557.66"/>
		</g>
		<g>
			<rect x="374.64" y="-41.81" class="st2" width="1.41" height="557.66"/>
		</g>
		<g>
			<rect x="439.57" y="-41.81" class="st2" width="1.41" height="557.66"/>
		</g>
		<g>
			<rect x="504.51" y="-41.81" class="st2" width="1.41" height="557.66"/>
		</g>
		<g>
			<rect x="569.44" y="-41.81" class="st2" width="1.41" height="557.66"/>
		</g>
		<g>
			<rect x="-142.07" y="24.7" class="st2" width="784.23" height="1.26"/>
		</g>
		<g>
			<rect x="-142.07" y="88.21" class="st2" width="784.23" height="1.26"/>
		</g>
		<g>
			<rect x="-142.07" y="151.73" class="st2" width="784.23" height="1.26"/>
		</g>
		<g>
			<rect x="-142.07" y="215.24" class="st2" width="784.23" height="1.26"/>
		</g>
		<g>
			<rect x="-142.07" y="278.75" class="st2" width="784.23" height="1.26"/>
		</g>
		<g>
			<rect x="-142.07" y="342.27" class="st2" width="784.23" height="1.26"/>
		</g>
		<g>
			<rect x="-142.07" y="404.8" class="st2" width="784.23" height="1.26"/>
		</g>
		<g>
			<rect x="-142.07" y="467.33" class="st2" width="784.23" height="1.26"/>
		</g>
	</g>
</g>
</svg>
